HIERARCHY
ROOT Hips
{
 OFFSET 0.000000 0.000000 0.000000
 CHANNELS 6 Xposition Yposition Zposition Yrotation Xrotation Zrotation
 JOINT Chest
 {
  OFFSET 0.000000 10.678932 0.006280
  CHANNELS 3 Yrotation Xrotation Zrotation
  JOINT Chest2
  {
   OFFSET 0.000000 10.491159 -0.011408
   CHANNELS 3 Yrotation Xrotation Zrotation
   JOINT Chest3
   {
    OFFSET 0.000000 9.479342 0.000000
    CHANNELS 3 Yrotation Xrotation Zrotation
    JOINT Chest4
    {
     OFFSET 0.000000 9.479342 0.000000
     CHANNELS 3 Yrotation Xrotation Zrotation
     JOINT Neck
     {
      OFFSET 0.000000 13.535332 0.000000
      CHANNELS 3 Yrotation Xrotation Zrotation
      JOINT Head
      {
       OFFSET 0.000000 8.819083 -0.027129
       CHANNELS 3 Yrotation Xrotation Zrotation
       End Site
       {
        OFFSET 0.000000 16.966594 -0.014170
       }
      }
     }
     JOINT RightCollar
     {
      OFFSET -3.012546 7.545150 0.000000
      CHANNELS 3 Yrotation Xrotation Zrotation
      JOINT RightShoulder
      {
       OFFSET -13.683099 0.000000 0.000000
       CHANNELS 3 Yrotation Xrotation Zrotation
       JOINT RightElbow
       {
        OFFSET -26.359998 0.000000 0.000000
        CHANNELS 3 Yrotation Xrotation Zrotation
        JOINT RightWrist
        {
         OFFSET -21.746691 0.000000 0.008601
         CHANNELS 3 Yrotation Xrotation Zrotation
         End Site
         {
          OFFSET -16.348058 0.000000 0.000000
         }
        }
       }
      }
     }
     JOINT LeftCollar
     {
      OFFSET 3.012546 7.545150 0.000000
      CHANNELS 3 Yrotation Xrotation Zrotation
      JOINT LeftShoulder
      {
       OFFSET 13.683099 0.000000 0.000000
       CHANNELS 3 Yrotation Xrotation Zrotation
       JOINT LeftElbow
       {
        OFFSET 26.359998 0.000000 0.000000
        CHANNELS 3 Yrotation Xrotation Zrotation
        JOINT LeftWrist
        {
         OFFSET 21.746691 0.000000 0.008601
         CHANNELS 3 Yrotation Xrotation Zrotation
         End Site
         {
          OFFSET 16.348058 0.000000 0.000000
         }
        }
       }
      }
     }
    }
   }
  }
 }
 JOINT RightHip
 {
  OFFSET -8.622479 -0.030774 -0.003140
  CHANNELS 3 Yrotation Xrotation Zrotation
  JOINT RightKnee
  {
   OFFSET 0.000000 -37.209160 -0.002630
   CHANNELS 3 Yrotation Xrotation Zrotation
   JOINT RightAnkle
   {
    OFFSET 0.000000 -37.343279 -0.058479
    CHANNELS 3 Yrotation Xrotation Zrotation
    JOINT RightToe
    {
     OFFSET 0.000000 -8.903465 15.088070
     CHANNELS 3 Yrotation Xrotation Zrotation
     End Site
     {
      OFFSET 0.000000 -1.471739 6.884388
     }
    }
   }
  }
 }
 JOINT LeftHip
 {
  OFFSET 8.622479 -0.030774 -0.003140
  CHANNELS 3 Yrotation Xrotation Zrotation
  JOINT LeftKnee
  {
   OFFSET 0.000000 -37.209160 -0.002630
   CHANNELS 3 Yrotation Xrotation Zrotation
   JOINT LeftAnkle
   {
    OFFSET 0.000000 -37.343279 -0.058479
    CHANNELS 3 Yrotation Xrotation Zrotation
    JOINT LeftToe
    {
     OFFSET 0.000000 -8.903465 15.088070
     CHANNELS 3 Yrotation Xrotation Zrotation
     End Site
     {
      OFFSET 0.000000 -1.471739 6.884388
     }
    }
   }
  }
 }
}
MOTION
Frames: 5
Frame Time: 0.200000
17.363745 79.889984 -161.504342 -133.190806 -7.287056 -9.688604 -4.466220 9.920228 2.686814 -0.396494 0.830550 0.271180 -0.605024 1.271375 0.412563 -3.899578 8.585980 2.519976 -5.807689 13.144834 3.817231 -12.538572 -11.090471 9.568232 -4.202536 -3.172105 -14.439259 26.393202 -43.244515 20.860993 48.557028 -22.552444 -7.804072 -3.008388 -3.469340 -15.230135 -4.826204 -6.052431 3.358881 -3.842314 -9.827667 -58.040760 -51.286254 -4.945405 -8.364683 9.745435 -1.194421 22.748211 -2.221958 7.623492 -3.609927 -11.573955 24.071499 -0.370908 -4.782467 -18.736711 9.124983 0.018734 -0.716925 0.178846 7.395177 -23.766721 39.632616 27.953741 53.654835 -1.798620 3.292412 5.579784 -14.153617 -1.289397 -19.900509 7.337655
11.999028 78.124442 -159.295069 -165.098891 -7.234248 1.607093 8.117527 9.783336 1.956418 0.727571 0.925663 0.127083 1.099029 1.396503 0.196344 6.719798 8.322902 1.592360 -6.710961 12.452308 -4.341202 -10.963997 -13.108991 -5.452758 0.042268 -1.578325 -0.908278 15.496789 -27.301168 52.524564 25.181251 -9.993408 6.921464 0.059145 -4.652052 -20.682524 -2.616366 -17.289528 20.821476 15.908833 -29.810516 -55.967651 -96.247832 -34.706134 8.265730 13.837971 -1.063909 23.798482 -3.959044 -10.566761 -17.578292 12.986654 35.078052 -0.875217 6.549082 -22.404946 12.429597 -0.088886 0.071118 -0.051525 -36.203721 -5.507936 14.412857 -12.754850 57.571237 -3.501381 -6.812626 0.273473 -18.995630 -0.373376 -28.745829 -4.566467
11.826164 79.203607 -157.113668 -151.714524 -9.210543 -0.595004 4.450509 10.611560 3.249869 0.367166 0.955161 0.271506 0.560136 1.451684 0.415298 3.775352 9.168326 2.908958 -8.050493 12.302461 -2.731142 -14.202792 -13.211894 -1.819549 3.912524 0.837563 -3.846971 19.551417 -28.286275 49.541845 25.892830 -7.209726 1.955962 -1.866534 -3.106100 -18.051843 -16.038174 -13.194052 21.215949 -2.205685 -44.020127 -52.396030 -83.121635 -34.712035 5.339193 12.273940 -0.584814 29.861633 -8.272053 -1.910381 -18.655215 5.442296 27.160643 -0.584418 3.338687 -16.866783 13.049482 0.032772 -0.430809 -0.478415 -13.093577 -10.655833 31.927781 2.385855 53.537975 -8.937648 -23.177682 8.049654 -15.006535 -0.274903 -31.070146 2.226705
13.215033 77.887922 -155.893139 -138.534356 -8.713052 -12.959078 1.879919 13.553918 10.175761 0.092113 1.642628 1.202168 0.144586 2.377757 1.741909 1.249407 10.729070 8.029870 -8.210253 6.544839 2.026780 -17.494496 -23.174392 8.365086 15.721671 10.110567 -7.940236 72.839379 -45.771582 38.414954 37.233818 5.052668 5.538245 1.527783 -5.889084 -18.597849 -35.960291 -13.619927 19.853531 -62.392505 -47.086488 -38.304267 -81.903910 -13.685930 -24.254481 10.277382 -1.907620 22.914470 8.184862 6.660563 -4.419668 -9.331910 23.190414 -1.302889 -2.068305 -15.329467 16.009583 -0.031163 0.031095 0.806633 2.746138 -24.437724 44.653427 13.255790 61.983249 -11.317407 -4.370269 -4.199989 -3.982867 0.123356 -17.888999 -0.406584
15.975928 81.898407 -151.445362 -159.656478 -10.245532 -4.157207 4.240114 13.394049 2.726396 0.415956 1.404947 0.230435 0.619984 2.086232 0.346013 3.502500 11.114090 2.138120 -4.648189 10.359319 0.198098 -9.093569 -16.777168 2.503920 4.724182 -4.093338 -4.809704 35.538019 -31.716761 40.734859 36.776264 -8.956552 6.425927 -0.043522 -5.456520 -16.008748 -14.067955 -16.239499 27.209305 -14.200597 -17.408113 -42.613785 -56.560234 -12.610057 -6.573475 6.475753 -1.038995 22.805434 -3.925023 -14.203308 -17.357779 0.906355 45.619115 -1.010102 11.467768 -9.732902 15.770270 -0.107459 -2.449175 -1.096912 6.085842 -6.362913 25.426317 23.029478 39.131263 -1.416142 8.433013 -6.415428 -9.319794 0.063878 -7.843023 -2.879516
